<svg width="20" height="20" viewBox="0 0 20 20" fill="none" xmlns="http://www.w3.org/2000/svg">
<path d="M11.0281 0.000732422C12.1535 0.00259242 12.7238 0.00855245 13.2166 0.0232224L13.4107 0.0295625C13.6349 0.0375325 13.8561 0.0475324 14.1228 0.0600324C15.1869 0.109202 15.9128 0.277532 16.5503 0.525032C17.2094 0.779202 17.7661 1.12253 18.3219 1.67837C18.8769 2.2342 19.2203 2.79253 19.4753 3.45003C19.7219 4.0867 19.8903 4.81337 19.9403 5.87753C19.9522 6.1442 19.9618 6.3654 19.9697 6.58964L19.976 6.78373C19.9906 7.27647 19.9973 7.84686 19.9994 8.9723L20.0002 9.7179C20.0003 9.809 20.0003 9.903 20.0003 10L20.0002 10.2821L19.9996 11.0278C19.9977 12.1532 19.9918 12.7236 19.9771 13.2163L19.9707 13.4104C19.9628 13.6347 19.9528 13.8559 19.9403 14.1225C19.8911 15.1867 19.7219 15.9125 19.4753 16.55C19.2211 17.2092 18.8769 17.7659 18.3219 18.3217C17.7661 18.8767 17.2069 19.22 16.5503 19.475C15.9128 19.7217 15.1869 19.89 14.1228 19.94C13.8561 19.9519 13.6349 19.9616 13.4107 19.9694L13.2166 19.9757C12.7238 19.9904 12.1535 19.997 11.0281 19.9992L10.2824 20C10.1913 20 10.0973 20 10.0003 20H9.7182L8.9725 19.9993C7.8471 19.9975 7.27672 19.9915 6.78397 19.9768L6.58989 19.9705C6.36564 19.9625 6.14444 19.9525 5.87778 19.94C4.81361 19.8909 4.08861 19.7217 3.45028 19.475C2.79194 19.2209 2.23444 18.8767 1.67861 18.3217C1.12278 17.7659 0.780277 17.2067 0.525277 16.55C0.277777 15.9125 0.110277 15.1867 0.0602767 14.1225C0.0483967 13.8559 0.0387066 13.6347 0.0308566 13.4104L0.0245667 13.2163C0.00993665 12.7236 0.00326674 12.1532 0.00110674 11.0278L0.000976562 8.9723C0.00283656 7.84686 0.00878657 7.27647 0.0234566 6.78373L0.0298066 6.58964C0.0377766 6.3654 0.0477767 6.1442 0.0602767 5.87753C0.109437 4.81253 0.277777 4.08753 0.525277 3.45003C0.779437 2.7917 1.12278 2.2342 1.67861 1.67837C2.23444 1.12253 2.79278 0.780032 3.45028 0.525032C4.08778 0.277532 4.81278 0.110032 5.87778 0.0600324C6.14444 0.0481624 6.36564 0.0384725 6.58989 0.0306225L6.78397 0.0243323C7.27672 0.00969229 7.8471 0.00302236 8.9725 0.00086236L11.0281 0.000732422ZM10.0003 5.00003C7.23738 5.00003 5.00028 7.23956 5.00028 10C5.00028 12.7629 7.23981 15 10.0003 15C12.7632 15 15.0003 12.7605 15.0003 10C15.0003 7.23713 12.7607 5.00003 10.0003 5.00003ZM10.0003 7.00003C11.6572 7.00003 13.0003 8.3427 13.0003 10C13.0003 11.6569 11.6576 13 10.0003 13C8.3434 13 7.00028 11.6574 7.00028 10C7.00028 8.3431 8.3429 7.00003 10.0003 7.00003ZM15.2503 3.50003C14.561 3.50003 14.0003 4.05994 14.0003 4.74918C14.0003 5.43843 14.5602 5.9992 15.2503 5.9992C15.9395 5.9992 16.5003 5.4393 16.5003 4.74918C16.5003 4.05994 15.9386 3.49917 15.2503 3.50003Z" fill="#080808"/>
</svg>
