<svg width="46" height="46" viewBox="0 0 46 46" fill="none" xmlns="http://www.w3.org/2000/svg">
<rect x="0.5" y="0.5" width="45" height="45" rx="5.5" stroke="#EBEBEB"/>
<path d="M19.0333 14.6667H17.45C15.625 14.6667 14.6666 15.625 14.6666 17.4417V19.025C14.6666 20.8417 15.625 21.8 17.4416 21.8H19.025C20.8416 21.8 21.8 20.8417 21.8 19.025V17.4417C21.8083 15.625 20.85 14.6667 19.0333 14.6667Z" fill="white"/>
<path d="M28.5583 14.6667H26.975C25.1583 14.6667 24.2 15.625 24.2 17.4417V19.025C24.2 20.8417 25.1583 21.8 26.975 21.8H28.5583C30.375 21.8 31.3333 20.8417 31.3333 19.025V17.4417C31.3333 15.625 30.375 14.6667 28.5583 14.6667Z" fill="white"/>
<path d="M28.5583 24.1917H26.975C25.1583 24.1917 24.2 25.15 24.2 26.9667V28.55C24.2 30.3667 25.1583 31.325 26.975 31.325H28.5583C30.375 31.325 31.3333 30.3667 31.3333 28.55V26.9667C31.3333 25.15 30.375 24.1917 28.5583 24.1917Z" fill="white"/>
<path d="M19.0333 24.1917H17.45C15.625 24.1917 14.6666 25.15 14.6666 26.9667V28.55C14.6666 30.375 15.625 31.3333 17.4416 31.3333H19.025C20.8416 31.3333 21.8 30.375 21.8 28.5583V26.975C21.8083 25.15 20.85 24.1917 19.0333 24.1917Z" fill="white"/>
</svg>
