<svg width="20" height="20" viewBox="0 0 20 20" fill="none" xmlns="http://www.w3.org/2000/svg">
<g id="vuesax/linear/profile">
<g id="profile">
<path id="Vector" d="M10.1333 9.05817C10.05 9.04984 9.94999 9.04984 9.85832 9.05817C7.87499 8.9915 6.29999 7.3665 6.29999 5.3665C6.29999 3.32484 7.94999 1.6665 9.99999 1.6665C12.0417 1.6665 13.7 3.32484 13.7 5.3665C13.6917 7.3665 12.1167 8.9915 10.1333 9.05817Z" stroke="#080808" stroke-width="1.5" stroke-linecap="round" stroke-linejoin="round"/>
<path id="Vector_2" d="M5.96666 12.1335C3.95 13.4835 3.95 15.6835 5.96666 17.0252C8.25833 18.5585 12.0167 18.5585 14.3083 17.0252C16.325 15.6752 16.325 13.4752 14.3083 12.1335C12.025 10.6085 8.26666 10.6085 5.96666 12.1335Z" stroke="#080808" stroke-width="1.5" stroke-linecap="round" stroke-linejoin="round"/>
</g>
</g>
</svg>
